<svg width="24" height="24" viewBox="0 0 24 24" fill="none" xmlns="http://www.w3.org/2000/svg">
<g id="cil-volume-high" clip-path="url(#clip0_2_66452)">
<path id="Vector" d="M6.81436 5.625H0.75V18.375H6.81436L11.6894 23.25H13.5V0.75H11.6894L6.81436 5.625ZM6 16.875H2.25V7.125H6V16.875ZM12 21.4394L7.5 16.9394V7.06064L12 2.56064V21.4394Z" fill="black"/>
<path id="Vector_2" d="M19.125 12C19.1238 10.9064 18.6888 9.85787 17.9154 9.08455C17.1421 8.31124 16.0936 7.87624 15 7.875V9.375C15.6962 9.375 16.3639 9.65156 16.8562 10.1438C17.3484 10.6361 17.625 11.3038 17.625 12C17.625 12.6962 17.3484 13.3639 16.8562 13.8562C16.3639 14.3484 15.6962 14.625 15 14.625V16.125C16.0936 16.1238 17.1421 15.6888 17.9154 14.9154C18.6888 14.1421 19.1238 13.0936 19.125 12Z" fill="black"/>
<path id="Vector_3" d="M15 2.69238V4.20537C18.8113 4.75277 21.75 8.03927 21.75 11.9996C21.75 15.96 18.8113 19.2465 15 19.7939V21.3069C19.6409 20.7493 23.25 16.7883 23.25 11.9996C23.25 7.21099 19.6409 3.24996 15 2.69238Z" fill="black"/>
</g>
<defs>
<clipPath id="clip0_2_66452">
<rect width="24" height="24" fill="white"/>
</clipPath>
</defs>
</svg>
